<svg xmlns="http://www.w3.org/2000/svg" viewBox="0 0 800 900" fill="#d4dde0" stroke="#9aabb0" stroke-width="1.2" stroke-linejoin="round">
  <path id="pk-0" d="M524.4,227.6 L524.7,228.6 L519,231.4 L516,238.8 L512.7,241 L509.1,241.7 L501.4,246.4 L497.6,244.5 L498,236.3 L495.5,233.7 L492.6,237.5 L489.8,236.1 L487.1,230.6 L483.7,228.2 L481,231.9 L475.9,234.1 L476.1,242.5 L470.6,243.1 L466.1,249.1 L465.2,257.7 L461,265.6 L456.5,267.7 L454.8,274 L457,279.7 L455.2,283.5 L451.7,283.8 L449.7,277 L442.8,278 L444.8,289 L441,291.5 L438,290.3 L433,296.2 L432.1,304.1 L434.2,314.7 L441.6,319.1 L441.4,328.7 L437.6,329.9 L434.8,335.5 L434.7,340 L431.9,342.5 L432.2,346 L429.5,358.6 L425.1,368 L422.9,371.1 L422.2,377 L423.5,381 L422.9,386.3 L420.5,393.2 L415.1,393.9 L410.5,391.9 L406.4,394.7 L403.8,400.8 L399.3,402.3 L398.6,408.2 L397.6,404.2 L398.6,395.6 L398.4,384.8 L392.1,387.1 L385.8,380.9 L386,367.6 L386.8,358.4 L381.4,352.1 L382.5,346.9 L376.8,348.2 L375.3,352 L370.9,354.7 L363.6,355.1 L361.7,342.2 L362,329.7 L360.4,323.3 L362.1,318.9 L366,316.8 L369.1,310.9 L366.7,304.6 L371.7,298.5 L370.1,293.8 L370.9,289.5 L373.9,285.2 L378.3,284.8 L381.4,282.5 L384.8,284.5 L390.5,281.6 L392.2,277.3 L395.6,278.2 L402.7,266.3 L397.1,258.1 L398,251.1 L395.5,245.9 L389.8,245.1 L388.5,240 L384.7,233.2 L386.1,228 L390,227.4 L392.5,229.3 L406,231.6 L408.9,233.6 L412.4,231.4 L419.1,232 L430.5,226 L433.5,219.5 L432.7,212.9 L434.6,207.3 L430.9,205 L428.3,201 L427.9,195.3 L431.8,193.7 L432.3,187.5 L437.3,183.6 L440.6,175.9 L447.5,171.3 L449.6,166.8 L448.6,162.5 L454.5,155.4 L449.8,149 L453.8,141.7 L451.8,136.8 L452.8,133.6 L448.2,130.3 L450.2,125.2 L447,121.1 L446.5,115.6 L443.1,109.4 L437.5,105.4 L438.4,99.8 L445.2,93.8 L445.9,91 L451.4,86.9 L454.3,78 L460.5,82.4 L461.8,76.2 L465.7,72.3 L472.1,70.4 L475.5,66.8 L477.6,60.7 L486.8,59.2 L493,54.8 L499.5,55.6 L507.4,54.1 L509.8,52.4 L521.7,51.7 L527.7,52.9 L531.2,51.2 L532.6,54.1 L538.9,58.1 L539.2,63.8 L534.3,62.8 L530.2,64 L520.5,61 L514.4,63.5 L510.9,62.7 L506.7,66.2 L507.7,69.9 L503.3,78.1 L500.1,79.3 L499.1,84 L489.8,90.6 L487.2,94.6 L486.4,101.4 L488.2,106.5 L486.1,113 L488.5,116.4 L492.2,118 L498.1,115.7 L503.9,117.1 L507.3,115.3 L509.6,116.8 L510.1,124.7 L515.7,130.5 L520.8,133 L534.8,136.1 L535.8,137.3 L531.7,144.6 L532.8,154.5 L535.6,153.5 L540,155.3 L548.1,160.5 L545.8,162.6 L546.5,167 L542.6,176.2 L536.9,178.7 L532.8,181.8 L530.3,186.8 L529.5,194.5 L527.2,193.3 L521.9,195.3 L520.2,207.3 L522.7,212.4 L524.4,227.6 Z" />
  <path id="pk-1" d="M263.3,785.8 L269.2,778.5 L272.2,777.9 L275.3,772.9 L275.4,769.1 L279.5,763.4 L280.5,754.3 L285.5,743 L288.8,739.2 L291.1,730.4 L290.9,722 L291.8,712 L280.8,684.4 L280,676.6 L280.6,671 L279.9,664.5 L280.5,658.1 L279.3,640.3 L281,631.8 L281.5,624.6 L283.5,621.3 L284.6,616.1 L288.2,610.7 L289.9,603.2 L299.3,601.2 L309.5,595.2 L311.6,590.4 L323.1,577.4 L327.4,574.6 L331,568.1 L336.4,566.9 L343.1,567.6 L365.9,566.3 L370.1,563.7 L374.2,566.4 L379.5,567.7 L382,571.5 L382.2,576 L385.6,589.1 L388,594.7 L391.2,598.9 L397.6,603 L393.7,610.2 L390.2,623.1 L387.2,626.4 L384.3,632.5 L376.8,641.8 L373.4,647 L370.9,656.1 L369.8,669 L371,673 L385,682.7 L392.1,681.6 L396,684.6 L396.7,688.5 L395.2,708.1 L392.8,713.7 L393.3,721.7 L396.4,729.3 L400.3,736.5 L405,738.8 L410.2,738 L413.3,736.2 L415.8,739 L415.5,755.6 L419,763.2 L424,770.6 L425.9,783.4 L432.1,798.9 L428,803.9 L428.3,813.5 L432.6,814.2 L429.8,819.3 L428,818.5 L420.6,826.9 L414.8,826.8 L411.7,825.1 L411.1,814.9 L403.8,818.9 L394.2,822.7 L391.9,828.7 L388.8,830.4 L379,829.8 L374.3,823.5 L370.4,824.9 L363.1,823.6 L358.9,826.1 L354.8,824.1 L351.2,826.7 L348.9,822.7 L346.9,824.4 L344.5,821.7 L342.1,823.1 L341.6,842.8 L328.8,842.9 L325.6,842.3 L321.5,848.1 L320.8,854.3 L318.8,860 L316.9,857.6 L316.6,852.3 L311.8,853.1 L307.5,848.9 L301.5,853.7 L291.9,842.1 L287.6,835.7 L285.6,827.4 L285,814.9 L282.5,810.1 L280.2,800.1 L282.1,796.6 L280.1,792.1 L269.8,788.5 L264.2,788.9 L263.3,785.8 Z" />
  <path id="pk-2" d="M501.4,246.4 L496.9,248.1 L500.3,256 L506.5,250.7 L511.5,260.5 L514.6,255.8 L515,250.7 L517.8,248 L512.7,241 L516,238.8 L519,231.4 L524.7,228.6 L525.2,230.7 L527.3,236.4 L526.6,242.1 L527.9,247.6 L526.7,252.2 L528.9,255.6 L526.8,267.6 L530.3,280.7 L529,284.5 L535.8,289.8 L540.2,288.2 L543.4,293.3 L555.9,301.6 L557.3,304.2 L561,303.1 L563.7,306.2 L566.9,305.1 L569.2,311.2 L567.9,314.1 L569.6,321.3 L575.4,321.1 L580.6,324.1 L582.8,321.4 L586.6,325.7 L588.9,325.5 L594.4,331.2 L595.6,337.1 L590.9,346.1 L581.9,349.7 L576.8,348.4 L574.3,354.2 L570.5,354 L564.6,361.9 L563.1,368.4 L567.9,384.5 L563.3,397.5 L562.7,404.1 L569.3,404.6 L569.1,408.8 L566.3,409.9 L561.3,414.7 L555.4,421.9 L552.2,429.7 L546.5,440.4 L542.6,443.1 L538.3,451.2 L541.6,457.7 L542,461.8 L535.1,469.7 L528.3,472.4 L519.9,477.5 L515.3,500.8 L508.3,519.6 L504.9,525.8 L502.6,533.2 L493.8,538.8 L481.2,549.3 L478,555.4 L473.5,574.1 L466.3,583.3 L463.9,588.2 L462.5,598.6 L453.3,604 L443.8,604.2 L438.5,605.7 L423.6,614.4 L418.7,613.3 L415.7,605.8 L415,600.2 L411.2,594.8 L408,593.9 L403.7,595.5 L397.6,603 L391.2,598.9 L388,594.7 L385.6,589.1 L382.2,576 L382,571.5 L379.5,567.7 L374.2,566.4 L370.1,563.7 L365.9,566.3 L363.9,560.4 L367.3,557.8 L371.7,546 L370.8,539.2 L376.1,530.2 L378.3,528.4 L380.1,516.9 L376.2,514.1 L376.7,510.3 L373,508.2 L374.3,501.8 L374.2,495 L379.7,491.1 L383.4,485.6 L388.2,470.6 L388.2,466.2 L391.4,458.8 L386.6,456.4 L388.1,447.7 L392.5,437.1 L392.5,430.5 L396.2,427.9 L398.1,419.9 L398.6,408.2 L399.3,402.3 L403.8,400.8 L406.4,394.7 L410.5,391.9 L415.1,393.9 L420.5,393.2 L422.9,386.3 L423.5,381 L422.2,377 L422.9,371.1 L425.1,368 L429.5,358.6 L432.2,346 L431.9,342.5 L434.7,340 L434.8,335.5 L437.6,329.9 L441.4,328.7 L441.6,319.1 L434.2,314.7 L432.1,304.1 L433,296.2 L438,290.3 L441,291.5 L444.8,289 L442.8,278 L449.7,277 L451.7,283.8 L455.2,283.5 L457,279.7 L454.8,274 L456.5,267.7 L461,265.6 L465.2,257.7 L466.1,249.1 L470.6,243.1 L476.1,242.5 L475.9,234.1 L481,231.9 L483.7,228.2 L487.1,230.6 L489.8,236.1 L492.6,237.5 L495.5,233.7 L498,236.3 L497.6,244.5 L501.4,246.4 Z" />
  <path id="pk-3" d="M594.4,331.2 L588.9,325.5 L586.6,325.7 L582.8,321.4 L580.6,324.1 L575.4,321.1 L569.6,321.3 L567.9,314.1 L569.2,311.2 L566.9,305.1 L563.7,306.2 L561,303.1 L557.3,304.2 L555.9,301.6 L543.4,293.3 L540.2,288.2 L535.8,289.8 L529,284.5 L530.3,280.7 L526.8,267.6 L528.9,255.6 L526.7,252.2 L527.9,247.6 L526.6,242.1 L527.3,236.4 L525.2,230.7 L524.4,227.6 L522.7,212.4 L520.2,207.3 L521.9,195.3 L527.2,193.3 L529.5,194.5 L530.3,186.8 L532.8,181.8 L536.9,178.7 L542.6,176.2 L546.5,167 L545.8,162.6 L548.1,160.5 L554.2,163.9 L560.7,160 L563.3,159.8 L566.7,166.8 L567.3,173.2 L570.6,173.9 L573.6,177.4 L580.1,181.1 L585.2,178.5 L587.3,174.7 L590.7,179.8 L591.8,186.8 L589.9,189.3 L591.9,190.1 L595.1,194.8 L610.5,197.7 L614.1,194.1 L623,187.9 L626.2,189.9 L632.2,184.5 L634.9,184.2 L638.3,180.6 L641.7,182.8 L646.3,182.8 L648.6,177.8 L648.9,172.6 L653.5,169.8 L658.4,171.8 L659.2,165.7 L664.5,164.7 L683.5,145.6 L690.9,137.4 L695.3,139.1 L697.2,136.2 L700.5,138.5 L698,148.2 L701.1,158.1 L703.7,162 L704.2,169.5 L708.1,180 L709.3,188.3 L712,191.4 L717.1,193.3 L723.5,193.6 L730.2,201.5 L736.4,205 L737.3,213.5 L735.8,216.4 L728.1,221.1 L726.8,225.1 L730.2,238 L730.5,256.2 L737.9,269 L741.2,270.2 L747,275.6 L752.7,275.7 L754.4,278.8 L752.6,282.8 L753.1,291.3 L756.9,296 L760,304.4 L758,309.8 L751.7,318.1 L748.2,317.5 L743.7,320.6 L743.1,325.6 L737.9,327.2 L730.9,321.8 L729.3,314.7 L729.6,311.3 L722.3,315.2 L719.5,313.7 L714.9,316.4 L711.7,320.7 L710.6,314.5 L713.8,310.6 L713.6,303 L708.3,307.9 L703.4,309.4 L701.3,313.1 L696.2,308.1 L696.3,302.7 L694.3,301.4 L692.3,294.6 L687.4,288 L680.9,294.6 L671.2,297.4 L664.8,294.5 L656.8,287.5 L650.8,279 L644.2,280.4 L642.5,277.7 L635.1,278.9 L630.7,284 L629.2,288.3 L623.7,290 L623.3,292.2 L618,297.4 L615,294.6 L612.2,298.3 L616.7,305.2 L617.2,312.1 L612.6,321.7 L609,325.9 L602,330.1 L594.4,331.2 Z" />
  <path id="pk-4" d="M531.2,51.2 L537.1,51.4 L544.3,55.2 L547.9,55.5 L549.1,51.3 L553,51.9 L559.4,46 L563.1,45.9 L569.5,40 L578.7,49.8 L582.7,45.1 L587.3,44.6 L590.8,48.4 L597.1,49.3 L597.9,59.8 L599.1,62.8 L602.7,60.1 L606.7,59.9 L612,63.3 L617,69 L617.5,73.4 L621.1,81.9 L619.4,86.3 L622.2,93 L617.7,98.8 L620.2,105.8 L623.6,106.1 L628.6,116.1 L633.5,117.1 L641.9,112 L643,120.1 L645.7,121.7 L649,126.9 L652.8,127 L656.7,131 L660.7,131.4 L665.7,135.8 L670.5,135.6 L673.9,139.4 L679.1,137.7 L685.2,138.7 L690.9,137.4 L683.5,145.6 L664.5,164.7 L659.2,165.7 L658.4,171.8 L653.5,169.8 L648.9,172.6 L648.6,177.8 L646.3,182.8 L641.7,182.8 L638.3,180.6 L634.9,184.2 L632.2,184.5 L626.2,189.9 L623,187.9 L614.1,194.1 L610.5,197.7 L595.1,194.8 L591.9,190.1 L589.9,189.3 L591.8,186.8 L590.7,179.8 L587.3,174.7 L585.2,178.5 L580.1,181.1 L573.6,177.4 L570.6,173.9 L567.3,173.2 L566.7,166.8 L563.3,159.8 L560.7,160 L554.2,163.9 L548.1,160.5 L540,155.3 L535.6,153.5 L532.8,154.5 L531.7,144.6 L535.8,137.3 L534.8,136.1 L520.8,133 L515.7,130.5 L510.1,124.7 L509.6,116.8 L507.3,115.3 L503.9,117.1 L498.1,115.7 L492.2,118 L488.5,116.4 L486.1,113 L488.2,106.5 L486.4,101.4 L487.2,94.6 L489.8,90.6 L499.1,84 L500.1,79.3 L503.3,78.1 L507.7,69.9 L506.7,66.2 L510.9,62.7 L514.4,63.5 L520.5,61 L530.2,64 L534.3,62.8 L539.2,63.8 L538.9,58.1 L532.6,54.1 L531.2,51.2 Z" />
  <path id="pk-5" d="M363.6,355.1 L370.9,354.7 L375.3,352 L376.8,348.2 L382.5,346.9 L381.4,352.1 L386.8,358.4 L386,367.6 L385.8,380.9 L392.1,387.1 L398.4,384.8 L398.6,395.6 L397.6,404.2 L398.6,408.2 L398.1,419.9 L396.2,427.9 L392.5,430.5 L392.5,437.1 L388.1,447.7 L386.6,456.4 L391.4,458.8 L388.2,466.2 L388.2,470.6 L383.4,485.6 L379.7,491.1 L374.2,495 L374.3,501.8 L373,508.2 L376.7,510.3 L376.2,514.1 L380.1,516.9 L378.3,528.4 L376.1,530.2 L370.8,539.2 L371.7,546 L367.3,557.8 L363.9,560.4 L365.9,566.3 L343.1,567.6 L336.4,566.9 L331,568.1 L327.4,574.6 L323.1,577.4 L311.6,590.4 L309.5,595.2 L299.3,601.2 L289.9,603.2 L288.2,610.7 L284.6,616.1 L283.5,621.3 L281.5,624.6 L281,631.8 L279.3,640.3 L280.5,658.1 L279.9,664.5 L280.6,671 L280,676.6 L280.8,684.4 L291.8,712 L290.9,722 L291.1,730.4 L288.8,739.2 L285.5,743 L280.5,754.3 L279.5,763.4 L275.4,769.1 L275.3,772.9 L272.2,777.9 L269.2,778.5 L263.3,785.8 L262,785.3 L262.6,774 L264.2,768.7 L263.5,765.6 L257.3,758.4 L258.5,755.2 L252.3,743.2 L246,742.1 L241.2,746.7 L244.3,749.3 L246.1,746 L248.7,745.6 L252.3,752.8 L246.6,750.7 L239.3,752 L234.7,754 L229.7,753.9 L223,758.5 L214.6,755.8 L207,756.3 L202.9,761.7 L200.1,760.5 L189.3,759.7 L184.9,762.5 L184.4,766.5 L179.9,762.9 L175.1,765 L168.3,760.3 L161.2,759 L156,759.2 L149.2,755.8 L146,756.1 L140.1,759.8 L138.9,764.3 L131.6,766.1 L127.2,764 L120.8,766.6 L110.8,763.8 L105,763.6 L100.2,764.7 L95.3,769.7 L91.5,766.3 L85.9,767.2 L85.6,773.5 L80.1,772.4 L76.8,774.1 L76.1,777.8 L71.3,776.5 L73.7,770 L67.3,767.5 L69,761.2 L70.3,730.5 L73.8,729.4 L76.4,704.3 L84.6,699 L87.4,694.4 L93.1,696.3 L92.4,693 L94,686.2 L99,683.5 L105.6,682.5 L112.2,678.4 L127.2,678.7 L128.4,673.1 L128.1,666.7 L131.5,664.8 L130.6,661.5 L130.5,652 L132.2,646.2 L127.8,642.4 L122.9,642.9 L118.8,645.4 L113.8,644.1 L112.3,641.8 L115.1,628.7 L113.8,607.9 L111.8,594 L112.7,579.1 L105,580.4 L98.3,570.4 L93.7,567.7 L83.9,564.9 L74.8,556.9 L70,548.9 L63.2,534.4 L60.3,523 L57.6,517.6 L58.2,513.5 L51.3,504.1 L40,483.7 L79.4,501.6 L82.5,503.9 L97.5,511.1 L100.8,511.8 L125.2,507.8 L132.2,507.8 L135.1,506.6 L146.2,505.7 L157.9,508.8 L162.7,512.6 L165.8,510.6 L166.4,506.6 L169.5,503.9 L176.3,502 L177.8,499.9 L183.4,499.3 L199.6,502.2 L227.8,490.5 L246.2,483.4 L249.8,475.4 L245.1,469.7 L249.4,455.6 L249.9,443.5 L247.3,440.8 L248.3,434.4 L250.7,427.5 L249.7,425.6 L254.5,417.5 L258.7,415 L262.7,408.8 L264.4,400.9 L270.6,394.5 L274.9,393.5 L274.9,398.3 L286.1,401.4 L293.4,398.9 L304.7,390.8 L302.8,387.2 L298.7,388.1 L297.7,381.8 L302.4,381.8 L307.4,375.4 L311.6,374.1 L314.8,371.2 L319.3,361.6 L323.8,366.3 L329,366.3 L334.7,362 L339.7,365.5 L340.3,370 L343.7,375.3 L348,375.6 L355.7,369.6 L358.8,360.7 L363.6,355.1 Z" />
  <path id="pk-6" d="M512.7,241 L517.8,248 L515,250.7 L514.6,255.8 L511.5,260.5 L506.5,250.7 L500.3,256 L496.9,248.1 L501.4,246.4 L509.1,241.7 L512.7,241 Z" />
</svg>